<svg xmlns="http://www.w3.org/2000/svg" viewBox="0 0 128 128" role="img" aria-label="Strix app icon">
  <defs>
    <linearGradient id="bg" x1="0.2" y1="0" x2="0.8" y2="1">
      <stop offset="0" stop-color="#4D78FF"></stop>
      <stop offset="1" stop-color="#1638B8"></stop>
    </linearGradient>
    <linearGradient id="sheen" x1="0" y1="0" x2="0" y2="1">
      <stop offset="0" stop-color="#FFFFFF" stop-opacity="0.18"></stop>
      <stop offset="1" stop-color="#FFFFFF" stop-opacity="0"></stop>
    </linearGradient>
    <filter id="ds" x="-20%" y="-20%" width="140%" height="140%">
      <feGaussianBlur stdDeviation="2" in="SourceAlpha"></feGaussianBlur>
      <feOffset dy="2"></feOffset>
      <feComponentTransfer><feFuncA type="linear" slope="0.40"></feFuncA></feComponentTransfer>
      <feMerge><feMergeNode></feMergeNode><feMergeNode in="SourceGraphic"></feMergeNode></feMerge>
    </filter>
  </defs>
  <rect x="4" y="4" width="120" height="120" rx="28" fill="url(#bg)"></rect>
  <rect x="4" y="4" width="120" height="120" rx="28" fill="url(#sheen)"></rect>

  <g opacity="0.10" stroke="#FFFFFF" stroke-width="1">
    <line x1="20" y1="40" x2="108" y2="40"></line>
    <line x1="20" y1="60" x2="108" y2="60"></line>
    <line x1="20" y1="80" x2="108" y2="80"></line>
    <line x1="20" y1="100" x2="108" y2="100"></line>
  </g>

  <g filter="url(#ds)" transform="translate(2,9) scale(1.3)">
    <path d="M30 22l-6-9M66 22l6-9" stroke="#FFFFFF" stroke-width="6" stroke-linecap="round" fill="none"></path>
    <path d="M48 14c-13 0-23 9-23 22 0 6 2 11 5 15-2 4-2 8 0 12 4 7 11 11 18 11s14-4 18-11c2-4 2-8 0-12 3-4 5-9 5-15 0-13-10-22-23-22z" fill="#FFFFFF"></path>
    <circle cx="40" cy="40" r="7.5" fill="url(#bg)"></circle>
    <circle cx="56" cy="40" r="7.5" fill="url(#bg)"></circle>
    <circle cx="41" cy="41" r="2.6" fill="#FFFFFF"></circle>
    <circle cx="57" cy="41" r="2.6" fill="#FFFFFF"></circle>
    <path d="M48 47l-3.5 6h7z" fill="url(#bg)"></path>
  </g>
</svg>
